# xmcd
#
# Track frame offsets:
#	150
#	19912
#	34922
#	56603
#	77001
#	98976
#	118923
#	135881
#	159968
#	178311
#	199927
#	216362
#	234908
#	252684
#	272225
#
# Disc length: 3879 seconds
#
# Revision: 1
# Processed by: cddbd v1.5.2PL0 Copyright (c) Steve Scherf et al.
# Submitted via: audiograbber 1.83.01
#
DISCID=d90f250f
DTITLE=Country - CB60228
DYEAR=2001
DGENRE=Karaoke
TTITLE0=Blessed
TTITLE1=I Should Be Sleeping
TTITLE2=I Don't Want You
TTITLE3=One Ride In Vegas
TTITLE4=Traveling Soldier
TTITLE5=She Doesn't Dance
TTITLE6=Table For Two
TTITLE7=Where Were You
TTITLE8=Singing To The Scarecrow
TTITLE9=The Package
TTITLE10=Inside Out
TTITLE11=50,000 Names
TTITLE12=A Girl In Love
TTITLE13=Mr. Midnight
TTITLE14=Back To You
EXTD=
EXTT0=
EXTT1=
EXTT2=
EXTT3=
EXTT4=
EXTT5=
EXTT6=
EXTT7=
EXTT8=
EXTT9=
EXTT10=
EXTT11=
EXTT12=
EXTT13=
EXTT14=
PLAYORDER=
